<?xml version="1.0" encoding="utf-8" standalone="no"?>
<!DOCTYPE svg PUBLIC "-//W3C//DTD SVG 1.1//EN"
  "http://www.w3.org/Graphics/SVG/1.1/DTD/svg11.dtd">
<svg xmlns:xlink="http://www.w3.org/1999/xlink" width="717.403125pt" height="403.176619pt" viewBox="0 0 717.403125 403.176619" xmlns="http://www.w3.org/2000/svg" version="1.1">
 <metadata>
  <rdf:RDF xmlns:dc="http://purl.org/dc/elements/1.1/" xmlns:cc="http://creativecommons.org/ns#" xmlns:rdf="http://www.w3.org/1999/02/22-rdf-syntax-ns#">
   <cc:Work>
    <dc:type rdf:resource="http://purl.org/dc/dcmitype/StillImage"/>
    <dc:date>2025-02-21T22:06:48.691096</dc:date>
    <dc:format>image/svg+xml</dc:format>
    <dc:creator>
     <cc:Agent>
      <dc:title>Matplotlib v3.8.0, https://matplotlib.org/</dc:title>
     </cc:Agent>
    </dc:creator>
   </cc:Work>
  </rdf:RDF>
 </metadata>
 <defs>
  <style type="text/css">*{stroke-linejoin: round; stroke-linecap: butt}</style>
 </defs>
 <g id="figure_1">
  <g id="patch_1">
   <path d="M 0 403.176619 
L 717.403125 403.176619 
L 717.403125 0 
L 0 0 
z
" style="fill: #ffffff"/>
  </g>
  <g id="axes_1">
   <g id="patch_2">
    <path d="M 40.603125 354.958125 
L 710.203125 354.958125 
L 710.203125 22.318125 
L 40.603125 22.318125 
z
" style="fill: #ffffff"/>
   </g>
   <g id="patch_3">
    <path d="M 71.039489 354.958125 
L 79.182997 354.958125 
L 79.182997 349.764682 
L 71.039489 349.764682 
z
" clip-path="url(#p40967ceaa0)" style="fill: #1f77b4"/>
   </g>
   <g id="patch_4">
    <path d="M 91.39826 354.958125 
L 99.541769 354.958125 
L 99.541769 349.764682 
L 91.39826 349.764682 
z
" clip-path="url(#p40967ceaa0)" style="fill: #1f77b4"/>
   </g>
   <g id="patch_5">
    <path d="M 101.577646 354.958125 
L 109.721155 354.958125 
L 109.721155 349.764682 
L 101.577646 349.764682 
z
" clip-path="url(#p40967ceaa0)" style="fill: #1f77b4"/>
   </g>
   <g id="patch_6">
    <path d="M 111.757032 354.958125 
L 119.900541 354.958125 
L 119.900541 339.377797 
L 111.757032 339.377797 
z
" clip-path="url(#p40967ceaa0)" style="fill: #1f77b4"/>
   </g>
   <g id="patch_7">
    <path d="M 121.936418 354.958125 
L 130.079926 354.958125 
L 130.079926 328.990912 
L 121.936418 328.990912 
z
" clip-path="url(#p40967ceaa0)" style="fill: #1f77b4"/>
   </g>
   <g id="patch_8">
    <path d="M 132.115804 354.958125 
L 140.259312 354.958125 
L 140.259312 349.764682 
L 132.115804 349.764682 
z
" clip-path="url(#p40967ceaa0)" style="fill: #1f77b4"/>
   </g>
   <g id="patch_9">
    <path d="M 142.295189 354.958125 
L 150.438698 354.958125 
L 150.438698 349.764682 
L 142.295189 349.764682 
z
" clip-path="url(#p40967ceaa0)" style="fill: #1f77b4"/>
   </g>
   <g id="patch_10">
    <path d="M 152.474575 354.958125 
L 160.618084 354.958125 
L 160.618084 349.764682 
L 152.474575 349.764682 
z
" clip-path="url(#p40967ceaa0)" style="fill: #1f77b4"/>
   </g>
   <g id="patch_11">
    <path d="M 162.653961 354.958125 
L 170.79747 354.958125 
L 170.79747 334.184355 
L 162.653961 334.184355 
z
" clip-path="url(#p40967ceaa0)" style="fill: #1f77b4"/>
   </g>
   <g id="patch_12">
    <path d="M 172.833347 354.958125 
L 180.976856 354.958125 
L 180.976856 344.57124 
L 172.833347 344.57124 
z
" clip-path="url(#p40967ceaa0)" style="fill: #1f77b4"/>
   </g>
   <g id="patch_13">
    <path d="M 183.012733 354.958125 
L 191.156241 354.958125 
L 191.156241 328.990912 
L 183.012733 328.990912 
z
" clip-path="url(#p40967ceaa0)" style="fill: #1f77b4"/>
   </g>
   <g id="patch_14">
    <path d="M 193.192119 354.958125 
L 201.335627 354.958125 
L 201.335627 344.57124 
L 193.192119 344.57124 
z
" clip-path="url(#p40967ceaa0)" style="fill: #1f77b4"/>
   </g>
   <g id="patch_15">
    <path d="M 203.371504 354.958125 
L 211.515013 354.958125 
L 211.515013 349.764682 
L 203.371504 349.764682 
z
" clip-path="url(#p40967ceaa0)" style="fill: #1f77b4"/>
   </g>
   <g id="patch_16">
    <path d="M 213.55089 354.958125 
L 221.694399 354.958125 
L 221.694399 344.57124 
L 213.55089 344.57124 
z
" clip-path="url(#p40967ceaa0)" style="fill: #1f77b4"/>
   </g>
   <g id="patch_17">
    <path d="M 223.730276 354.958125 
L 231.873785 354.958125 
L 231.873785 334.184355 
L 223.730276 334.184355 
z
" clip-path="url(#p40967ceaa0)" style="fill: #1f77b4"/>
   </g>
   <g id="patch_18">
    <path d="M 233.909662 354.958125 
L 242.053171 354.958125 
L 242.053171 334.184355 
L 233.909662 334.184355 
z
" clip-path="url(#p40967ceaa0)" style="fill: #1f77b4"/>
   </g>
   <g id="patch_19">
    <path d="M 244.089048 354.958125 
L 252.232556 354.958125 
L 252.232556 323.797469 
L 244.089048 323.797469 
z
" clip-path="url(#p40967ceaa0)" style="fill: #1f77b4"/>
   </g>
   <g id="patch_20">
    <path d="M 254.268434 354.958125 
L 262.411942 354.958125 
L 262.411942 339.377797 
L 254.268434 339.377797 
z
" clip-path="url(#p40967ceaa0)" style="fill: #1f77b4"/>
   </g>
   <g id="patch_21">
    <path d="M 264.447819 354.958125 
L 272.591328 354.958125 
L 272.591328 339.377797 
L 264.447819 339.377797 
z
" clip-path="url(#p40967ceaa0)" style="fill: #1f77b4"/>
   </g>
   <g id="patch_22">
    <path d="M 274.627205 354.958125 
L 282.770714 354.958125 
L 282.770714 344.57124 
L 274.627205 344.57124 
z
" clip-path="url(#p40967ceaa0)" style="fill: #1f77b4"/>
   </g>
   <g id="patch_23">
    <path d="M 284.806591 354.958125 
L 292.9501 354.958125 
L 292.9501 349.764682 
L 284.806591 349.764682 
z
" clip-path="url(#p40967ceaa0)" style="fill: #1f77b4"/>
   </g>
   <g id="patch_24">
    <path d="M 294.985977 354.958125 
L 303.129486 354.958125 
L 303.129486 328.990912 
L 294.985977 328.990912 
z
" clip-path="url(#p40967ceaa0)" style="fill: #1f77b4"/>
   </g>
   <g id="patch_25">
    <path d="M 305.165363 354.958125 
L 313.308871 354.958125 
L 313.308871 287.443371 
L 305.165363 287.443371 
z
" clip-path="url(#p40967ceaa0)" style="fill: #1f77b4"/>
   </g>
   <g id="patch_26">
    <path d="M 315.344749 354.958125 
L 323.488257 354.958125 
L 323.488257 318.604027 
L 315.344749 318.604027 
z
" clip-path="url(#p40967ceaa0)" style="fill: #1f77b4"/>
   </g>
   <g id="patch_27">
    <path d="M 325.524134 354.958125 
L 333.667643 354.958125 
L 333.667643 334.184355 
L 325.524134 334.184355 
z
" clip-path="url(#p40967ceaa0)" style="fill: #1f77b4"/>
   </g>
   <g id="patch_28">
    <path d="M 335.70352 354.958125 
L 343.847029 354.958125 
L 343.847029 339.377797 
L 335.70352 339.377797 
z
" clip-path="url(#p40967ceaa0)" style="fill: #1f77b4"/>
   </g>
   <g id="patch_29">
    <path d="M 345.882906 354.958125 
L 354.026415 354.958125 
L 354.026415 308.217141 
L 345.882906 308.217141 
z
" clip-path="url(#p40967ceaa0)" style="fill: #1f77b4"/>
   </g>
   <g id="patch_30">
    <path d="M 356.062292 354.958125 
L 364.205801 354.958125 
L 364.205801 308.217141 
L 356.062292 308.217141 
z
" clip-path="url(#p40967ceaa0)" style="fill: #1f77b4"/>
   </g>
   <g id="patch_31">
    <path d="M 366.241678 354.958125 
L 374.385186 354.958125 
L 374.385186 292.636814 
L 366.241678 292.636814 
z
" clip-path="url(#p40967ceaa0)" style="fill: #1f77b4"/>
   </g>
   <g id="patch_32">
    <path d="M 376.421064 354.958125 
L 384.564572 354.958125 
L 384.564572 297.830256 
L 376.421064 297.830256 
z
" clip-path="url(#p40967ceaa0)" style="fill: #1f77b4"/>
   </g>
   <g id="patch_33">
    <path d="M 386.600449 354.958125 
L 394.743958 354.958125 
L 394.743958 282.249928 
L 386.600449 282.249928 
z
" clip-path="url(#p40967ceaa0)" style="fill: #1f77b4"/>
   </g>
   <g id="patch_34">
    <path d="M 396.779835 354.958125 
L 404.923344 354.958125 
L 404.923344 313.410584 
L 396.779835 313.410584 
z
" clip-path="url(#p40967ceaa0)" style="fill: #1f77b4"/>
   </g>
   <g id="patch_35">
    <path d="M 406.959221 354.958125 
L 415.10273 354.958125 
L 415.10273 292.636814 
L 406.959221 292.636814 
z
" clip-path="url(#p40967ceaa0)" style="fill: #1f77b4"/>
   </g>
   <g id="patch_36">
    <path d="M 417.138607 354.958125 
L 425.282116 354.958125 
L 425.282116 297.830256 
L 417.138607 297.830256 
z
" clip-path="url(#p40967ceaa0)" style="fill: #1f77b4"/>
   </g>
   <g id="patch_37">
    <path d="M 427.317993 354.958125 
L 435.461501 354.958125 
L 435.461501 188.767961 
L 427.317993 188.767961 
z
" clip-path="url(#p40967ceaa0)" style="fill: #1f77b4"/>
   </g>
   <g id="patch_38">
    <path d="M 437.497379 354.958125 
L 445.640887 354.958125 
L 445.640887 225.122059 
L 437.497379 225.122059 
z
" clip-path="url(#p40967ceaa0)" style="fill: #1f77b4"/>
   </g>
   <g id="patch_39">
    <path d="M 447.676764 354.958125 
L 455.820273 354.958125 
L 455.820273 256.282715 
L 447.676764 256.282715 
z
" clip-path="url(#p40967ceaa0)" style="fill: #1f77b4"/>
   </g>
   <g id="patch_40">
    <path d="M 457.85615 354.958125 
L 465.999659 354.958125 
L 465.999659 225.122059 
L 457.85615 225.122059 
z
" clip-path="url(#p40967ceaa0)" style="fill: #1f77b4"/>
   </g>
   <g id="patch_41">
    <path d="M 468.035536 354.958125 
L 476.179045 354.958125 
L 476.179045 152.413863 
L 468.035536 152.413863 
z
" clip-path="url(#p40967ceaa0)" style="fill: #1f77b4"/>
   </g>
   <g id="patch_42">
    <path d="M 478.214922 354.958125 
L 486.358431 354.958125 
L 486.358431 251.089273 
L 478.214922 251.089273 
z
" clip-path="url(#p40967ceaa0)" style="fill: #1f77b4"/>
   </g>
   <g id="patch_43">
    <path d="M 488.394308 354.958125 
L 496.537816 354.958125 
L 496.537816 199.154846 
L 488.394308 199.154846 
z
" clip-path="url(#p40967ceaa0)" style="fill: #1f77b4"/>
   </g>
   <g id="patch_44">
    <path d="M 498.573694 354.958125 
L 506.717202 354.958125 
L 506.717202 147.22042 
L 498.573694 147.22042 
z
" clip-path="url(#p40967ceaa0)" style="fill: #1f77b4"/>
   </g>
   <g id="patch_45">
    <path d="M 508.753079 354.958125 
L 516.896588 354.958125 
L 516.896588 69.318781 
L 508.753079 69.318781 
z
" clip-path="url(#p40967ceaa0)" style="fill: #1f77b4"/>
   </g>
   <g id="patch_46">
    <path d="M 518.932465 354.958125 
L 527.075974 354.958125 
L 527.075974 116.059764 
L 518.932465 116.059764 
z
" clip-path="url(#p40967ceaa0)" style="fill: #1f77b4"/>
   </g>
   <g id="patch_47">
    <path d="M 529.111851 354.958125 
L 537.25536 354.958125 
L 537.25536 79.705666 
L 529.111851 79.705666 
z
" clip-path="url(#p40967ceaa0)" style="fill: #1f77b4"/>
   </g>
   <g id="patch_48">
    <path d="M 539.291237 354.958125 
L 547.434746 354.958125 
L 547.434746 173.187633 
L 539.291237 173.187633 
z
" clip-path="url(#p40967ceaa0)" style="fill: #1f77b4"/>
   </g>
   <g id="patch_49">
    <path d="M 549.470623 354.958125 
L 557.614131 354.958125 
L 557.614131 95.285994 
L 549.470623 95.285994 
z
" clip-path="url(#p40967ceaa0)" style="fill: #1f77b4"/>
   </g>
   <g id="patch_50">
    <path d="M 559.650009 354.958125 
L 567.793517 354.958125 
L 567.793517 38.158125 
L 559.650009 38.158125 
z
" clip-path="url(#p40967ceaa0)" style="fill: #1f77b4"/>
   </g>
   <g id="patch_51">
    <path d="M 569.829394 354.958125 
L 577.972903 354.958125 
L 577.972903 142.026977 
L 569.829394 142.026977 
z
" clip-path="url(#p40967ceaa0)" style="fill: #1f77b4"/>
   </g>
   <g id="patch_52">
    <path d="M 580.00878 354.958125 
L 588.152289 354.958125 
L 588.152289 100.479436 
L 580.00878 100.479436 
z
" clip-path="url(#p40967ceaa0)" style="fill: #1f77b4"/>
   </g>
   <g id="patch_53">
    <path d="M 590.188166 354.958125 
L 598.331675 354.958125 
L 598.331675 230.315502 
L 590.188166 230.315502 
z
" clip-path="url(#p40967ceaa0)" style="fill: #1f77b4"/>
   </g>
   <g id="patch_54">
    <path d="M 600.367552 354.958125 
L 608.511061 354.958125 
L 608.511061 277.056486 
L 600.367552 277.056486 
z
" clip-path="url(#p40967ceaa0)" style="fill: #1f77b4"/>
   </g>
   <g id="patch_55">
    <path d="M 610.546938 354.958125 
L 618.690446 354.958125 
L 618.690446 292.636814 
L 610.546938 292.636814 
z
" clip-path="url(#p40967ceaa0)" style="fill: #1f77b4"/>
   </g>
   <g id="patch_56">
    <path d="M 620.726324 354.958125 
L 628.869832 354.958125 
L 628.869832 292.636814 
L 620.726324 292.636814 
z
" clip-path="url(#p40967ceaa0)" style="fill: #1f77b4"/>
   </g>
   <g id="patch_57">
    <path d="M 630.905709 354.958125 
L 639.049218 354.958125 
L 639.049218 318.604027 
L 630.905709 318.604027 
z
" clip-path="url(#p40967ceaa0)" style="fill: #1f77b4"/>
   </g>
   <g id="patch_58">
    <path d="M 641.085095 354.958125 
L 649.228604 354.958125 
L 649.228604 349.764682 
L 641.085095 349.764682 
z
" clip-path="url(#p40967ceaa0)" style="fill: #1f77b4"/>
   </g>
   <g id="patch_59">
    <path d="M 671.623253 354.958125 
L 679.766761 354.958125 
L 679.766761 344.57124 
L 671.623253 344.57124 
z
" clip-path="url(#p40967ceaa0)" style="fill: #1f77b4"/>
   </g>
   <g id="matplotlib.axis_1">
    <g id="xtick_1">
     <g id="line2d_1">
      <defs>
       <path id="m008f50542b" d="M 0 0 
L 0 3.5 
" style="stroke: #000000; stroke-width: 0.8"/>
      </defs>
      <g>
       <use xlink:href="#m008f50542b" x="85.290629" y="354.958125" style="stroke: #000000; stroke-width: 0.8"/>
      </g>
     </g>
     <g id="text_1">
      <!-- 50 -->
      <g transform="translate(82.742835 376.328965) rotate(-45) scale(0.1 -0.1)">
       <defs>
        <path id="DejaVuSans-35" d="M 691 4666 
L 3169 4666 
L 3169 4134 
L 1269 4134 
L 1269 2991 
Q 1406 3038 1543 3061 
Q 1681 3084 1819 3084 
Q 2600 3084 3056 2656 
Q 3513 2228 3513 1497 
Q 3513 744 3044 326 
Q 2575 -91 1722 -91 
Q 1428 -91 1123 -41 
Q 819 9 494 109 
L 494 744 
Q 775 591 1075 516 
Q 1375 441 1709 441 
Q 2250 441 2565 725 
Q 2881 1009 2881 1497 
Q 2881 1984 2565 2268 
Q 2250 2553 1709 2553 
Q 1456 2553 1204 2497 
Q 953 2441 691 2322 
L 691 4666 
z
" transform="scale(0.015625)"/>
        <path id="DejaVuSans-30" d="M 2034 4250 
Q 1547 4250 1301 3770 
Q 1056 3291 1056 2328 
Q 1056 1369 1301 889 
Q 1547 409 2034 409 
Q 2525 409 2770 889 
Q 3016 1369 3016 2328 
Q 3016 3291 2770 3770 
Q 2525 4250 2034 4250 
z
M 2034 4750 
Q 2819 4750 3233 4129 
Q 3647 3509 3647 2328 
Q 3647 1150 3233 529 
Q 2819 -91 2034 -91 
Q 1250 -91 836 529 
Q 422 1150 422 2328 
Q 422 3509 836 4129 
Q 1250 4750 2034 4750 
z
" transform="scale(0.015625)"/>
       </defs>
       <use xlink:href="#DejaVuSans-35"/>
       <use xlink:href="#DejaVuSans-30" x="63.623047"/>
      </g>
     </g>
    </g>
    <g id="xtick_2">
     <g id="line2d_2">
      <g>
       <use xlink:href="#m008f50542b" x="187.084487" y="354.958125" style="stroke: #000000; stroke-width: 0.8"/>
      </g>
     </g>
     <g id="text_2">
      <!-- 60 -->
      <g transform="translate(184.536693 376.328965) rotate(-45) scale(0.1 -0.1)">
       <defs>
        <path id="DejaVuSans-36" d="M 2113 2584 
Q 1688 2584 1439 2293 
Q 1191 2003 1191 1497 
Q 1191 994 1439 701 
Q 1688 409 2113 409 
Q 2538 409 2786 701 
Q 3034 994 3034 1497 
Q 3034 2003 2786 2293 
Q 2538 2584 2113 2584 
z
M 3366 4563 
L 3366 3988 
Q 3128 4100 2886 4159 
Q 2644 4219 2406 4219 
Q 1781 4219 1451 3797 
Q 1122 3375 1075 2522 
Q 1259 2794 1537 2939 
Q 1816 3084 2150 3084 
Q 2853 3084 3261 2657 
Q 3669 2231 3669 1497 
Q 3669 778 3244 343 
Q 2819 -91 2113 -91 
Q 1303 -91 875 529 
Q 447 1150 447 2328 
Q 447 3434 972 4092 
Q 1497 4750 2381 4750 
Q 2619 4750 2861 4703 
Q 3103 4656 3366 4563 
z
" transform="scale(0.015625)"/>
       </defs>
       <use xlink:href="#DejaVuSans-36"/>
       <use xlink:href="#DejaVuSans-30" x="63.623047"/>
      </g>
     </g>
    </g>
    <g id="xtick_3">
     <g id="line2d_3">
      <g>
       <use xlink:href="#m008f50542b" x="288.878345" y="354.958125" style="stroke: #000000; stroke-width: 0.8"/>
      </g>
     </g>
     <g id="text_3">
      <!-- 70 -->
      <g transform="translate(286.330551 376.328965) rotate(-45) scale(0.1 -0.1)">
       <defs>
        <path id="DejaVuSans-37" d="M 525 4666 
L 3525 4666 
L 3525 4397 
L 1831 0 
L 1172 0 
L 2766 4134 
L 525 4134 
L 525 4666 
z
" transform="scale(0.015625)"/>
       </defs>
       <use xlink:href="#DejaVuSans-37"/>
       <use xlink:href="#DejaVuSans-30" x="63.623047"/>
      </g>
     </g>
    </g>
    <g id="xtick_4">
     <g id="line2d_4">
      <g>
       <use xlink:href="#m008f50542b" x="390.672204" y="354.958125" style="stroke: #000000; stroke-width: 0.8"/>
      </g>
     </g>
     <g id="text_4">
      <!-- 80 -->
      <g transform="translate(388.12441 376.328965) rotate(-45) scale(0.1 -0.1)">
       <defs>
        <path id="DejaVuSans-38" d="M 2034 2216 
Q 1584 2216 1326 1975 
Q 1069 1734 1069 1313 
Q 1069 891 1326 650 
Q 1584 409 2034 409 
Q 2484 409 2743 651 
Q 3003 894 3003 1313 
Q 3003 1734 2745 1975 
Q 2488 2216 2034 2216 
z
M 1403 2484 
Q 997 2584 770 2862 
Q 544 3141 544 3541 
Q 544 4100 942 4425 
Q 1341 4750 2034 4750 
Q 2731 4750 3128 4425 
Q 3525 4100 3525 3541 
Q 3525 3141 3298 2862 
Q 3072 2584 2669 2484 
Q 3125 2378 3379 2068 
Q 3634 1759 3634 1313 
Q 3634 634 3220 271 
Q 2806 -91 2034 -91 
Q 1263 -91 848 271 
Q 434 634 434 1313 
Q 434 1759 690 2068 
Q 947 2378 1403 2484 
z
M 1172 3481 
Q 1172 3119 1398 2916 
Q 1625 2713 2034 2713 
Q 2441 2713 2670 2916 
Q 2900 3119 2900 3481 
Q 2900 3844 2670 4047 
Q 2441 4250 2034 4250 
Q 1625 4250 1398 4047 
Q 1172 3844 1172 3481 
z
" transform="scale(0.015625)"/>
       </defs>
       <use xlink:href="#DejaVuSans-38"/>
       <use xlink:href="#DejaVuSans-30" x="63.623047"/>
      </g>
     </g>
    </g>
    <g id="xtick_5">
     <g id="line2d_5">
      <g>
       <use xlink:href="#m008f50542b" x="492.466062" y="354.958125" style="stroke: #000000; stroke-width: 0.8"/>
      </g>
     </g>
     <g id="text_5">
      <!-- 90 -->
      <g transform="translate(489.918268 376.328965) rotate(-45) scale(0.1 -0.1)">
       <defs>
        <path id="DejaVuSans-39" d="M 703 97 
L 703 672 
Q 941 559 1184 500 
Q 1428 441 1663 441 
Q 2288 441 2617 861 
Q 2947 1281 2994 2138 
Q 2813 1869 2534 1725 
Q 2256 1581 1919 1581 
Q 1219 1581 811 2004 
Q 403 2428 403 3163 
Q 403 3881 828 4315 
Q 1253 4750 1959 4750 
Q 2769 4750 3195 4129 
Q 3622 3509 3622 2328 
Q 3622 1225 3098 567 
Q 2575 -91 1691 -91 
Q 1453 -91 1209 -44 
Q 966 3 703 97 
z
M 1959 2075 
Q 2384 2075 2632 2365 
Q 2881 2656 2881 3163 
Q 2881 3666 2632 3958 
Q 2384 4250 1959 4250 
Q 1534 4250 1286 3958 
Q 1038 3666 1038 3163 
Q 1038 2656 1286 2365 
Q 1534 2075 1959 2075 
z
" transform="scale(0.015625)"/>
       </defs>
       <use xlink:href="#DejaVuSans-39"/>
       <use xlink:href="#DejaVuSans-30" x="63.623047"/>
      </g>
     </g>
    </g>
    <g id="xtick_6">
     <g id="line2d_6">
      <g>
       <use xlink:href="#m008f50542b" x="594.25992" y="354.958125" style="stroke: #000000; stroke-width: 0.8"/>
      </g>
     </g>
     <g id="text_6">
      <!-- 100 -->
      <g transform="translate(589.462643 380.827932) rotate(-45) scale(0.1 -0.1)">
       <defs>
        <path id="DejaVuSans-31" d="M 794 531 
L 1825 531 
L 1825 4091 
L 703 3866 
L 703 4441 
L 1819 4666 
L 2450 4666 
L 2450 531 
L 3481 531 
L 3481 0 
L 794 0 
L 794 531 
z
" transform="scale(0.015625)"/>
       </defs>
       <use xlink:href="#DejaVuSans-31"/>
       <use xlink:href="#DejaVuSans-30" x="63.623047"/>
       <use xlink:href="#DejaVuSans-30" x="127.246094"/>
      </g>
     </g>
    </g>
    <g id="xtick_7">
     <g id="line2d_7">
      <g>
       <use xlink:href="#m008f50542b" x="696.053779" y="354.958125" style="stroke: #000000; stroke-width: 0.8"/>
      </g>
     </g>
     <g id="text_7">
      <!-- 110 -->
      <g transform="translate(691.256501 380.827932) rotate(-45) scale(0.1 -0.1)">
       <use xlink:href="#DejaVuSans-31"/>
       <use xlink:href="#DejaVuSans-31" x="63.623047"/>
       <use xlink:href="#DejaVuSans-30" x="127.246094"/>
      </g>
     </g>
    </g>
    <g id="text_8">
     <!-- Max Temperature (°F) -->
     <g transform="translate(320.940625 393.896931) scale(0.1 -0.1)">
      <defs>
       <path id="DejaVuSans-4d" d="M 628 4666 
L 1569 4666 
L 2759 1491 
L 3956 4666 
L 4897 4666 
L 4897 0 
L 4281 0 
L 4281 4097 
L 3078 897 
L 2444 897 
L 1241 4097 
L 1241 0 
L 628 0 
L 628 4666 
z
" transform="scale(0.015625)"/>
       <path id="DejaVuSans-61" d="M 2194 1759 
Q 1497 1759 1228 1600 
Q 959 1441 959 1056 
Q 959 750 1161 570 
Q 1363 391 1709 391 
Q 2188 391 2477 730 
Q 2766 1069 2766 1631 
L 2766 1759 
L 2194 1759 
z
M 3341 1997 
L 3341 0 
L 2766 0 
L 2766 531 
Q 2569 213 2275 61 
Q 1981 -91 1556 -91 
Q 1019 -91 701 211 
Q 384 513 384 1019 
Q 384 1609 779 1909 
Q 1175 2209 1959 2209 
L 2766 2209 
L 2766 2266 
Q 2766 2663 2505 2880 
Q 2244 3097 1772 3097 
Q 1472 3097 1187 3025 
Q 903 2953 641 2809 
L 641 3341 
Q 956 3463 1253 3523 
Q 1550 3584 1831 3584 
Q 2591 3584 2966 3190 
Q 3341 2797 3341 1997 
z
" transform="scale(0.015625)"/>
       <path id="DejaVuSans-78" d="M 3513 3500 
L 2247 1797 
L 3578 0 
L 2900 0 
L 1881 1375 
L 863 0 
L 184 0 
L 1544 1831 
L 300 3500 
L 978 3500 
L 1906 2253 
L 2834 3500 
L 3513 3500 
z
" transform="scale(0.015625)"/>
       <path id="DejaVuSans-20" transform="scale(0.015625)"/>
       <path id="DejaVuSans-54" d="M -19 4666 
L 3928 4666 
L 3928 4134 
L 2272 4134 
L 2272 0 
L 1638 0 
L 1638 4134 
L -19 4134 
L -19 4666 
z
" transform="scale(0.015625)"/>
       <path id="DejaVuSans-65" d="M 3597 1894 
L 3597 1613 
L 953 1613 
Q 991 1019 1311 708 
Q 1631 397 2203 397 
Q 2534 397 2845 478 
Q 3156 559 3463 722 
L 3463 178 
Q 3153 47 2828 -22 
Q 2503 -91 2169 -91 
Q 1331 -91 842 396 
Q 353 884 353 1716 
Q 353 2575 817 3079 
Q 1281 3584 2069 3584 
Q 2775 3584 3186 3129 
Q 3597 2675 3597 1894 
z
M 3022 2063 
Q 3016 2534 2758 2815 
Q 2500 3097 2075 3097 
Q 1594 3097 1305 2825 
Q 1016 2553 972 2059 
L 3022 2063 
z
" transform="scale(0.015625)"/>
       <path id="DejaVuSans-6d" d="M 3328 2828 
Q 3544 3216 3844 3400 
Q 4144 3584 4550 3584 
Q 5097 3584 5394 3201 
Q 5691 2819 5691 2113 
L 5691 0 
L 5113 0 
L 5113 2094 
Q 5113 2597 4934 2840 
Q 4756 3084 4391 3084 
Q 3944 3084 3684 2787 
Q 3425 2491 3425 1978 
L 3425 0 
L 2847 0 
L 2847 2094 
Q 2847 2600 2669 2842 
Q 2491 3084 2119 3084 
Q 1678 3084 1418 2786 
Q 1159 2488 1159 1978 
L 1159 0 
L 581 0 
L 581 3500 
L 1159 3500 
L 1159 2956 
Q 1356 3278 1631 3431 
Q 1906 3584 2284 3584 
Q 2666 3584 2933 3390 
Q 3200 3197 3328 2828 
z
" transform="scale(0.015625)"/>
       <path id="DejaVuSans-70" d="M 1159 525 
L 1159 -1331 
L 581 -1331 
L 581 3500 
L 1159 3500 
L 1159 2969 
Q 1341 3281 1617 3432 
Q 1894 3584 2278 3584 
Q 2916 3584 3314 3078 
Q 3713 2572 3713 1747 
Q 3713 922 3314 415 
Q 2916 -91 2278 -91 
Q 1894 -91 1617 61 
Q 1341 213 1159 525 
z
M 3116 1747 
Q 3116 2381 2855 2742 
Q 2594 3103 2138 3103 
Q 1681 3103 1420 2742 
Q 1159 2381 1159 1747 
Q 1159 1113 1420 752 
Q 1681 391 2138 391 
Q 2594 391 2855 752 
Q 3116 1113 3116 1747 
z
" transform="scale(0.015625)"/>
       <path id="DejaVuSans-72" d="M 2631 2963 
Q 2534 3019 2420 3045 
Q 2306 3072 2169 3072 
Q 1681 3072 1420 2755 
Q 1159 2438 1159 1844 
L 1159 0 
L 581 0 
L 581 3500 
L 1159 3500 
L 1159 2956 
Q 1341 3275 1631 3429 
Q 1922 3584 2338 3584 
Q 2397 3584 2469 3576 
Q 2541 3569 2628 3553 
L 2631 2963 
z
" transform="scale(0.015625)"/>
       <path id="DejaVuSans-74" d="M 1172 4494 
L 1172 3500 
L 2356 3500 
L 2356 3053 
L 1172 3053 
L 1172 1153 
Q 1172 725 1289 603 
Q 1406 481 1766 481 
L 2356 481 
L 2356 0 
L 1766 0 
Q 1100 0 847 248 
Q 594 497 594 1153 
L 594 3053 
L 172 3053 
L 172 3500 
L 594 3500 
L 594 4494 
L 1172 4494 
z
" transform="scale(0.015625)"/>
       <path id="DejaVuSans-75" d="M 544 1381 
L 544 3500 
L 1119 3500 
L 1119 1403 
Q 1119 906 1312 657 
Q 1506 409 1894 409 
Q 2359 409 2629 706 
Q 2900 1003 2900 1516 
L 2900 3500 
L 3475 3500 
L 3475 0 
L 2900 0 
L 2900 538 
Q 2691 219 2414 64 
Q 2138 -91 1772 -91 
Q 1169 -91 856 284 
Q 544 659 544 1381 
z
M 1991 3584 
L 1991 3584 
z
" transform="scale(0.015625)"/>
       <path id="DejaVuSans-28" d="M 1984 4856 
Q 1566 4138 1362 3434 
Q 1159 2731 1159 2009 
Q 1159 1288 1364 580 
Q 1569 -128 1984 -844 
L 1484 -844 
Q 1016 -109 783 600 
Q 550 1309 550 2009 
Q 550 2706 781 3412 
Q 1013 4119 1484 4856 
L 1984 4856 
z
" transform="scale(0.015625)"/>
       <path id="DejaVuSans-b0" d="M 1600 4347 
Q 1350 4347 1178 4173 
Q 1006 4000 1006 3750 
Q 1006 3503 1178 3333 
Q 1350 3163 1600 3163 
Q 1850 3163 2022 3333 
Q 2194 3503 2194 3750 
Q 2194 3997 2020 4172 
Q 1847 4347 1600 4347 
z
M 1600 4750 
Q 1800 4750 1984 4673 
Q 2169 4597 2303 4453 
Q 2447 4313 2519 4134 
Q 2591 3956 2591 3750 
Q 2591 3338 2302 3052 
Q 2013 2766 1594 2766 
Q 1172 2766 890 3047 
Q 609 3328 609 3750 
Q 609 4169 896 4459 
Q 1184 4750 1600 4750 
z
" transform="scale(0.015625)"/>
       <path id="DejaVuSans-46" d="M 628 4666 
L 3309 4666 
L 3309 4134 
L 1259 4134 
L 1259 2759 
L 3109 2759 
L 3109 2228 
L 1259 2228 
L 1259 0 
L 628 0 
L 628 4666 
z
" transform="scale(0.015625)"/>
       <path id="DejaVuSans-29" d="M 513 4856 
L 1013 4856 
Q 1481 4119 1714 3412 
Q 1947 2706 1947 2009 
Q 1947 1309 1714 600 
Q 1481 -109 1013 -844 
L 513 -844 
Q 928 -128 1133 580 
Q 1338 1288 1338 2009 
Q 1338 2731 1133 3434 
Q 928 4138 513 4856 
z
" transform="scale(0.015625)"/>
      </defs>
      <use xlink:href="#DejaVuSans-4d"/>
      <use xlink:href="#DejaVuSans-61" x="86.279297"/>
      <use xlink:href="#DejaVuSans-78" x="147.558594"/>
      <use xlink:href="#DejaVuSans-20" x="206.738281"/>
      <use xlink:href="#DejaVuSans-54" x="238.525391"/>
      <use xlink:href="#DejaVuSans-65" x="282.609375"/>
      <use xlink:href="#DejaVuSans-6d" x="344.132812"/>
      <use xlink:href="#DejaVuSans-70" x="441.544922"/>
      <use xlink:href="#DejaVuSans-65" x="505.021484"/>
      <use xlink:href="#DejaVuSans-72" x="566.544922"/>
      <use xlink:href="#DejaVuSans-61" x="607.658203"/>
      <use xlink:href="#DejaVuSans-74" x="668.9375"/>
      <use xlink:href="#DejaVuSans-75" x="708.146484"/>
      <use xlink:href="#DejaVuSans-72" x="771.525391"/>
      <use xlink:href="#DejaVuSans-65" x="810.388672"/>
      <use xlink:href="#DejaVuSans-20" x="871.912109"/>
      <use xlink:href="#DejaVuSans-28" x="903.699219"/>
      <use xlink:href="#DejaVuSans-b0" x="942.712891"/>
      <use xlink:href="#DejaVuSans-46" x="992.712891"/>
      <use xlink:href="#DejaVuSans-29" x="1050.232422"/>
     </g>
    </g>
   </g>
   <g id="matplotlib.axis_2">
    <g id="ytick_1">
     <g id="line2d_8">
      <defs>
       <path id="m4343776535" d="M 0 0 
L -3.5 0 
" style="stroke: #000000; stroke-width: 0.8"/>
      </defs>
      <g>
       <use xlink:href="#m4343776535" x="40.603125" y="354.958125" style="stroke: #000000; stroke-width: 0.8"/>
      </g>
     </g>
     <g id="text_9">
      <!-- 0 -->
      <g transform="translate(27.240625 358.757344) scale(0.1 -0.1)">
       <use xlink:href="#DejaVuSans-30"/>
      </g>
     </g>
    </g>
    <g id="ytick_2">
     <g id="line2d_9">
      <g>
       <use xlink:href="#m4343776535" x="40.603125" y="303.023699" style="stroke: #000000; stroke-width: 0.8"/>
      </g>
     </g>
     <g id="text_10">
      <!-- 10 -->
      <g transform="translate(20.878125 306.822918) scale(0.1 -0.1)">
       <use xlink:href="#DejaVuSans-31"/>
       <use xlink:href="#DejaVuSans-30" x="63.623047"/>
      </g>
     </g>
    </g>
    <g id="ytick_3">
     <g id="line2d_10">
      <g>
       <use xlink:href="#m4343776535" x="40.603125" y="251.089273" style="stroke: #000000; stroke-width: 0.8"/>
      </g>
     </g>
     <g id="text_11">
      <!-- 20 -->
      <g transform="translate(20.878125 254.888491) scale(0.1 -0.1)">
       <defs>
        <path id="DejaVuSans-32" d="M 1228 531 
L 3431 531 
L 3431 0 
L 469 0 
L 469 531 
Q 828 903 1448 1529 
Q 2069 2156 2228 2338 
Q 2531 2678 2651 2914 
Q 2772 3150 2772 3378 
Q 2772 3750 2511 3984 
Q 2250 4219 1831 4219 
Q 1534 4219 1204 4116 
Q 875 4013 500 3803 
L 500 4441 
Q 881 4594 1212 4672 
Q 1544 4750 1819 4750 
Q 2544 4750 2975 4387 
Q 3406 4025 3406 3419 
Q 3406 3131 3298 2873 
Q 3191 2616 2906 2266 
Q 2828 2175 2409 1742 
Q 1991 1309 1228 531 
z
" transform="scale(0.015625)"/>
       </defs>
       <use xlink:href="#DejaVuSans-32"/>
       <use xlink:href="#DejaVuSans-30" x="63.623047"/>
      </g>
     </g>
    </g>
    <g id="ytick_4">
     <g id="line2d_11">
      <g>
       <use xlink:href="#m4343776535" x="40.603125" y="199.154846" style="stroke: #000000; stroke-width: 0.8"/>
      </g>
     </g>
     <g id="text_12">
      <!-- 30 -->
      <g transform="translate(20.878125 202.954065) scale(0.1 -0.1)">
       <defs>
        <path id="DejaVuSans-33" d="M 2597 2516 
Q 3050 2419 3304 2112 
Q 3559 1806 3559 1356 
Q 3559 666 3084 287 
Q 2609 -91 1734 -91 
Q 1441 -91 1130 -33 
Q 819 25 488 141 
L 488 750 
Q 750 597 1062 519 
Q 1375 441 1716 441 
Q 2309 441 2620 675 
Q 2931 909 2931 1356 
Q 2931 1769 2642 2001 
Q 2353 2234 1838 2234 
L 1294 2234 
L 1294 2753 
L 1863 2753 
Q 2328 2753 2575 2939 
Q 2822 3125 2822 3475 
Q 2822 3834 2567 4026 
Q 2313 4219 1838 4219 
Q 1578 4219 1281 4162 
Q 984 4106 628 3988 
L 628 4550 
Q 988 4650 1302 4700 
Q 1616 4750 1894 4750 
Q 2613 4750 3031 4423 
Q 3450 4097 3450 3541 
Q 3450 3153 3228 2886 
Q 3006 2619 2597 2516 
z
" transform="scale(0.015625)"/>
       </defs>
       <use xlink:href="#DejaVuSans-33"/>
       <use xlink:href="#DejaVuSans-30" x="63.623047"/>
      </g>
     </g>
    </g>
    <g id="ytick_5">
     <g id="line2d_12">
      <g>
       <use xlink:href="#m4343776535" x="40.603125" y="147.22042" style="stroke: #000000; stroke-width: 0.8"/>
      </g>
     </g>
     <g id="text_13">
      <!-- 40 -->
      <g transform="translate(20.878125 151.019639) scale(0.1 -0.1)">
       <defs>
        <path id="DejaVuSans-34" d="M 2419 4116 
L 825 1625 
L 2419 1625 
L 2419 4116 
z
M 2253 4666 
L 3047 4666 
L 3047 1625 
L 3713 1625 
L 3713 1100 
L 3047 1100 
L 3047 0 
L 2419 0 
L 2419 1100 
L 313 1100 
L 313 1709 
L 2253 4666 
z
" transform="scale(0.015625)"/>
       </defs>
       <use xlink:href="#DejaVuSans-34"/>
       <use xlink:href="#DejaVuSans-30" x="63.623047"/>
      </g>
     </g>
    </g>
    <g id="ytick_6">
     <g id="line2d_13">
      <g>
       <use xlink:href="#m4343776535" x="40.603125" y="95.285994" style="stroke: #000000; stroke-width: 0.8"/>
      </g>
     </g>
     <g id="text_14">
      <!-- 50 -->
      <g transform="translate(20.878125 99.085213) scale(0.1 -0.1)">
       <use xlink:href="#DejaVuSans-35"/>
       <use xlink:href="#DejaVuSans-30" x="63.623047"/>
      </g>
     </g>
    </g>
    <g id="ytick_7">
     <g id="line2d_14">
      <g>
       <use xlink:href="#m4343776535" x="40.603125" y="43.351568" style="stroke: #000000; stroke-width: 0.8"/>
      </g>
     </g>
     <g id="text_15">
      <!-- 60 -->
      <g transform="translate(20.878125 47.150786) scale(0.1 -0.1)">
       <use xlink:href="#DejaVuSans-36"/>
       <use xlink:href="#DejaVuSans-30" x="63.623047"/>
      </g>
     </g>
    </g>
    <g id="text_16">
     <!-- Number of Fires -->
     <g transform="translate(14.798438 228.248281) rotate(-90) scale(0.1 -0.1)">
      <defs>
       <path id="DejaVuSans-4e" d="M 628 4666 
L 1478 4666 
L 3547 763 
L 3547 4666 
L 4159 4666 
L 4159 0 
L 3309 0 
L 1241 3903 
L 1241 0 
L 628 0 
L 628 4666 
z
" transform="scale(0.015625)"/>
       <path id="DejaVuSans-62" d="M 3116 1747 
Q 3116 2381 2855 2742 
Q 2594 3103 2138 3103 
Q 1681 3103 1420 2742 
Q 1159 2381 1159 1747 
Q 1159 1113 1420 752 
Q 1681 391 2138 391 
Q 2594 391 2855 752 
Q 3116 1113 3116 1747 
z
M 1159 2969 
Q 1341 3281 1617 3432 
Q 1894 3584 2278 3584 
Q 2916 3584 3314 3078 
Q 3713 2572 3713 1747 
Q 3713 922 3314 415 
Q 2916 -91 2278 -91 
Q 1894 -91 1617 61 
Q 1341 213 1159 525 
L 1159 0 
L 581 0 
L 581 4863 
L 1159 4863 
L 1159 2969 
z
" transform="scale(0.015625)"/>
       <path id="DejaVuSans-6f" d="M 1959 3097 
Q 1497 3097 1228 2736 
Q 959 2375 959 1747 
Q 959 1119 1226 758 
Q 1494 397 1959 397 
Q 2419 397 2687 759 
Q 2956 1122 2956 1747 
Q 2956 2369 2687 2733 
Q 2419 3097 1959 3097 
z
M 1959 3584 
Q 2709 3584 3137 3096 
Q 3566 2609 3566 1747 
Q 3566 888 3137 398 
Q 2709 -91 1959 -91 
Q 1206 -91 779 398 
Q 353 888 353 1747 
Q 353 2609 779 3096 
Q 1206 3584 1959 3584 
z
" transform="scale(0.015625)"/>
       <path id="DejaVuSans-66" d="M 2375 4863 
L 2375 4384 
L 1825 4384 
Q 1516 4384 1395 4259 
Q 1275 4134 1275 3809 
L 1275 3500 
L 2222 3500 
L 2222 3053 
L 1275 3053 
L 1275 0 
L 697 0 
L 697 3053 
L 147 3053 
L 147 3500 
L 697 3500 
L 697 3744 
Q 697 4328 969 4595 
Q 1241 4863 1831 4863 
L 2375 4863 
z
" transform="scale(0.015625)"/>
       <path id="DejaVuSans-69" d="M 603 3500 
L 1178 3500 
L 1178 0 
L 603 0 
L 603 3500 
z
M 603 4863 
L 1178 4863 
L 1178 4134 
L 603 4134 
L 603 4863 
z
" transform="scale(0.015625)"/>
       <path id="DejaVuSans-73" d="M 2834 3397 
L 2834 2853 
Q 2591 2978 2328 3040 
Q 2066 3103 1784 3103 
Q 1356 3103 1142 2972 
Q 928 2841 928 2578 
Q 928 2378 1081 2264 
Q 1234 2150 1697 2047 
L 1894 2003 
Q 2506 1872 2764 1633 
Q 3022 1394 3022 966 
Q 3022 478 2636 193 
Q 2250 -91 1575 -91 
Q 1294 -91 989 -36 
Q 684 19 347 128 
L 347 722 
Q 666 556 975 473 
Q 1284 391 1588 391 
Q 1994 391 2212 530 
Q 2431 669 2431 922 
Q 2431 1156 2273 1281 
Q 2116 1406 1581 1522 
L 1381 1569 
Q 847 1681 609 1914 
Q 372 2147 372 2553 
Q 372 3047 722 3315 
Q 1072 3584 1716 3584 
Q 2034 3584 2315 3537 
Q 2597 3491 2834 3397 
z
" transform="scale(0.015625)"/>
      </defs>
      <use xlink:href="#DejaVuSans-4e"/>
      <use xlink:href="#DejaVuSans-75" x="74.804688"/>
      <use xlink:href="#DejaVuSans-6d" x="138.183594"/>
      <use xlink:href="#DejaVuSans-62" x="235.595703"/>
      <use xlink:href="#DejaVuSans-65" x="299.072266"/>
      <use xlink:href="#DejaVuSans-72" x="360.595703"/>
      <use xlink:href="#DejaVuSans-20" x="401.708984"/>
      <use xlink:href="#DejaVuSans-6f" x="433.496094"/>
      <use xlink:href="#DejaVuSans-66" x="494.677734"/>
      <use xlink:href="#DejaVuSans-20" x="529.882812"/>
      <use xlink:href="#DejaVuSans-46" x="561.669922"/>
      <use xlink:href="#DejaVuSans-69" x="611.939453"/>
      <use xlink:href="#DejaVuSans-72" x="639.722656"/>
      <use xlink:href="#DejaVuSans-65" x="678.585938"/>
      <use xlink:href="#DejaVuSans-73" x="740.109375"/>
     </g>
    </g>
   </g>
   <g id="patch_60">
    <path d="M 40.603125 354.958125 
L 40.603125 22.318125 
" style="fill: none; stroke: #000000; stroke-width: 0.8; stroke-linejoin: miter; stroke-linecap: square"/>
   </g>
   <g id="patch_61">
    <path d="M 710.203125 354.958125 
L 710.203125 22.318125 
" style="fill: none; stroke: #000000; stroke-width: 0.8; stroke-linejoin: miter; stroke-linecap: square"/>
   </g>
   <g id="patch_62">
    <path d="M 40.603125 354.958125 
L 710.203125 354.958125 
" style="fill: none; stroke: #000000; stroke-width: 0.8; stroke-linejoin: miter; stroke-linecap: square"/>
   </g>
   <g id="patch_63">
    <path d="M 40.603125 22.318125 
L 710.203125 22.318125 
" style="fill: none; stroke: #000000; stroke-width: 0.8; stroke-linejoin: miter; stroke-linecap: square"/>
   </g>
   <g id="text_17">
    <!-- Number of Fires per Temperature in Washoe County -->
    <g transform="translate(220.00875 16.318125) scale(0.12 -0.12)">
     <defs>
      <path id="DejaVuSans-6e" d="M 3513 2113 
L 3513 0 
L 2938 0 
L 2938 2094 
Q 2938 2591 2744 2837 
Q 2550 3084 2163 3084 
Q 1697 3084 1428 2787 
Q 1159 2491 1159 1978 
L 1159 0 
L 581 0 
L 581 3500 
L 1159 3500 
L 1159 2956 
Q 1366 3272 1645 3428 
Q 1925 3584 2291 3584 
Q 2894 3584 3203 3211 
Q 3513 2838 3513 2113 
z
" transform="scale(0.015625)"/>
      <path id="DejaVuSans-57" d="M 213 4666 
L 850 4666 
L 1831 722 
L 2809 4666 
L 3519 4666 
L 4500 722 
L 5478 4666 
L 6119 4666 
L 4947 0 
L 4153 0 
L 3169 4050 
L 2175 0 
L 1381 0 
L 213 4666 
z
" transform="scale(0.015625)"/>
      <path id="DejaVuSans-68" d="M 3513 2113 
L 3513 0 
L 2938 0 
L 2938 2094 
Q 2938 2591 2744 2837 
Q 2550 3084 2163 3084 
Q 1697 3084 1428 2787 
Q 1159 2491 1159 1978 
L 1159 0 
L 581 0 
L 581 4863 
L 1159 4863 
L 1159 2956 
Q 1366 3272 1645 3428 
Q 1925 3584 2291 3584 
Q 2894 3584 3203 3211 
Q 3513 2838 3513 2113 
z
" transform="scale(0.015625)"/>
      <path id="DejaVuSans-43" d="M 4122 4306 
L 4122 3641 
Q 3803 3938 3442 4084 
Q 3081 4231 2675 4231 
Q 1875 4231 1450 3742 
Q 1025 3253 1025 2328 
Q 1025 1406 1450 917 
Q 1875 428 2675 428 
Q 3081 428 3442 575 
Q 3803 722 4122 1019 
L 4122 359 
Q 3791 134 3420 21 
Q 3050 -91 2638 -91 
Q 1578 -91 968 557 
Q 359 1206 359 2328 
Q 359 3453 968 4101 
Q 1578 4750 2638 4750 
Q 3056 4750 3426 4639 
Q 3797 4528 4122 4306 
z
" transform="scale(0.015625)"/>
      <path id="DejaVuSans-79" d="M 2059 -325 
Q 1816 -950 1584 -1140 
Q 1353 -1331 966 -1331 
L 506 -1331 
L 506 -850 
L 844 -850 
Q 1081 -850 1212 -737 
Q 1344 -625 1503 -206 
L 1606 56 
L 191 3500 
L 800 3500 
L 1894 763 
L 2988 3500 
L 3597 3500 
L 2059 -325 
z
" transform="scale(0.015625)"/>
     </defs>
     <use xlink:href="#DejaVuSans-4e"/>
     <use xlink:href="#DejaVuSans-75" x="74.804688"/>
     <use xlink:href="#DejaVuSans-6d" x="138.183594"/>
     <use xlink:href="#DejaVuSans-62" x="235.595703"/>
     <use xlink:href="#DejaVuSans-65" x="299.072266"/>
     <use xlink:href="#DejaVuSans-72" x="360.595703"/>
     <use xlink:href="#DejaVuSans-20" x="401.708984"/>
     <use xlink:href="#DejaVuSans-6f" x="433.496094"/>
     <use xlink:href="#DejaVuSans-66" x="494.677734"/>
     <use xlink:href="#DejaVuSans-20" x="529.882812"/>
     <use xlink:href="#DejaVuSans-46" x="561.669922"/>
     <use xlink:href="#DejaVuSans-69" x="611.939453"/>
     <use xlink:href="#DejaVuSans-72" x="639.722656"/>
     <use xlink:href="#DejaVuSans-65" x="678.585938"/>
     <use xlink:href="#DejaVuSans-73" x="740.109375"/>
     <use xlink:href="#DejaVuSans-20" x="792.208984"/>
     <use xlink:href="#DejaVuSans-70" x="823.996094"/>
     <use xlink:href="#DejaVuSans-65" x="887.472656"/>
     <use xlink:href="#DejaVuSans-72" x="948.996094"/>
     <use xlink:href="#DejaVuSans-20" x="990.109375"/>
     <use xlink:href="#DejaVuSans-54" x="1021.896484"/>
     <use xlink:href="#DejaVuSans-65" x="1065.980469"/>
     <use xlink:href="#DejaVuSans-6d" x="1127.503906"/>
     <use xlink:href="#DejaVuSans-70" x="1224.916016"/>
     <use xlink:href="#DejaVuSans-65" x="1288.392578"/>
     <use xlink:href="#DejaVuSans-72" x="1349.916016"/>
     <use xlink:href="#DejaVuSans-61" x="1391.029297"/>
     <use xlink:href="#DejaVuSans-74" x="1452.308594"/>
     <use xlink:href="#DejaVuSans-75" x="1491.517578"/>
     <use xlink:href="#DejaVuSans-72" x="1554.896484"/>
     <use xlink:href="#DejaVuSans-65" x="1593.759766"/>
     <use xlink:href="#DejaVuSans-20" x="1655.283203"/>
     <use xlink:href="#DejaVuSans-69" x="1687.070312"/>
     <use xlink:href="#DejaVuSans-6e" x="1714.853516"/>
     <use xlink:href="#DejaVuSans-20" x="1778.232422"/>
     <use xlink:href="#DejaVuSans-57" x="1810.019531"/>
     <use xlink:href="#DejaVuSans-61" x="1902.521484"/>
     <use xlink:href="#DejaVuSans-73" x="1963.800781"/>
     <use xlink:href="#DejaVuSans-68" x="2015.900391"/>
     <use xlink:href="#DejaVuSans-6f" x="2079.279297"/>
     <use xlink:href="#DejaVuSans-65" x="2140.460938"/>
     <use xlink:href="#DejaVuSans-20" x="2201.984375"/>
     <use xlink:href="#DejaVuSans-43" x="2233.771484"/>
     <use xlink:href="#DejaVuSans-6f" x="2303.595703"/>
     <use xlink:href="#DejaVuSans-75" x="2364.777344"/>
     <use xlink:href="#DejaVuSans-6e" x="2428.15625"/>
     <use xlink:href="#DejaVuSans-74" x="2491.535156"/>
     <use xlink:href="#DejaVuSans-79" x="2530.744141"/>
    </g>
   </g>
  </g>
 </g>
 <defs>
  <clipPath id="p40967ceaa0">
   <rect x="40.603125" y="22.318125" width="669.6" height="332.64"/>
  </clipPath>
 </defs>
</svg>
